<svg xmlns="http://www.w3.org/2000/svg" width="320" height="320" viewBox="0 0 320 320"><rect width="20" height="20" x="200" y="0" fill="rgba(52,101,164,1)" /><rect width="20" height="20" x="180" y="20" fill="rgba(52,101,164,1)" /><rect width="20" height="20" x="200" y="20" fill="rgba(52,101,164,1)" /><rect width="20" height="20" x="220" y="20" fill="rgba(52,101,164,1)" /><rect width="20" height="20" x="160" y="40" fill="rgba(52,101,164,1)" /><rect width="20" height="20" x="180" y="40" fill="rgba(52,101,164,1)" /><rect width="20" height="20" x="200" y="40" fill="rgba(52,101,164,1)" /><rect width="20" height="20" x="220" y="40" fill="rgba(52,101,164,1)" /><rect width="20" height="20" x="240" y="40" fill="rgba(52,101,164,1)" /><rect width="20" height="20" x="140" y="60" fill="rgba(52,101,164,1)" /><rect width="20" height="20" x="160" y="60" fill="rgba(52,101,164,1)" /><rect width="20" height="20" x="180" y="60" fill="rgba(52,101,164,1)" /><rect width="20" height="20" x="200" y="60" fill="rgba(52,101,164,1)" /><rect width="20" height="20" x="220" y="60" fill="rgba(255,255,255,1)" /><rect width="20" height="20" x="240" y="60" fill="rgba(255,255,255,1)" /><rect width="20" height="20" x="260" y="60" fill="rgba(46,52,54,1)" /><rect width="20" height="20" x="120" y="80" fill="rgba(52,101,164,1)" /><rect width="20" height="20" x="140" y="80" fill="rgba(52,101,164,1)" /><rect width="20" height="20" x="160" y="80" fill="rgba(52,101,164,1)" /><rect width="20" height="20" x="180" y="80" fill="rgba(52,101,164,1)" /><rect width="20" height="20" x="200" y="80" fill="rgba(255,255,255,1)" /><rect width="20" height="20" x="220" y="80" fill="rgba(255,255,255,1)" /><rect width="20" height="20" x="240" y="80" fill="rgba(255,255,255,1)" /><rect width="20" height="20" x="260" y="80" fill="rgba(46,52,54,1)" /><rect width="20" height="20" x="280" y="80" fill="rgba(46,52,54,1)" /><rect width="20" height="20" x="100" y="100" fill="rgba(52,101,164,1)" /><rect width="20" height="20" x="120" y="100" fill="rgba(52,101,164,1)" /><rect width="20" height="20" x="140" y="100" fill="rgba(52,101,164,1)" /><rect width="20" height="20" x="160" y="100" fill="rgba(52,101,164,1)" /><rect width="20" height="20" x="180" y="100" fill="rgba(255,255,255,1)" /><rect width="20" height="20" x="200" y="100" fill="rgba(255,255,255,1)" /><rect width="20" height="20" x="220" y="100" fill="rgba(255,255,255,1)" /><rect width="20" height="20" x="240" y="100" fill="rgba(46,52,54,1)" /><rect width="20" height="20" x="260" y="100" fill="rgba(46,52,54,1)" /><rect width="20" height="20" x="280" y="100" fill="rgba(46,52,54,1)" /><rect width="20" height="20" x="300" y="100" fill="rgba(46,52,54,1)" /><rect width="20" height="20" x="80" y="120" fill="rgba(52,101,164,1)" /><rect width="20" height="20" x="100" y="120" fill="rgba(52,101,164,1)" /><rect width="20" height="20" x="120" y="120" fill="rgba(52,101,164,1)" /><rect width="20" height="20" x="140" y="120" fill="rgba(52,101,164,1)" /><rect width="20" height="20" x="160" y="120" fill="rgba(255,255,255,1)" /><rect width="20" height="20" x="180" y="120" fill="rgba(255,255,255,1)" /><rect width="20" height="20" x="200" y="120" fill="rgba(255,255,255,1)" /><rect width="20" height="20" x="220" y="120" fill="rgba(46,52,54,1)" /><rect width="20" height="20" x="240" y="120" fill="rgba(46,52,54,1)" /><rect width="20" height="20" x="260" y="120" fill="rgba(46,52,54,1)" /><rect width="20" height="20" x="280" y="120" fill="rgba(46,52,54,1)" /><rect width="20" height="20" x="300" y="120" fill="rgba(0,0,0,1)" /><rect width="20" height="20" x="60" y="140" fill="rgba(52,101,164,1)" /><rect width="20" height="20" x="80" y="140" fill="rgba(52,101,164,1)" /><rect width="20" height="20" x="100" y="140" fill="rgba(52,101,164,1)" /><rect width="20" height="20" x="120" y="140" fill="rgba(52,101,164,1)" /><rect width="20" height="20" x="140" y="140" fill="rgba(255,255,255,1)" /><rect width="20" height="20" x="160" y="140" fill="rgba(255,255,255,1)" /><rect width="20" height="20" x="180" y="140" fill="rgba(255,255,255,1)" /><rect width="20" height="20" x="200" y="140" fill="rgba(46,52,54,1)" /><rect width="20" height="20" x="220" y="140" fill="rgba(46,52,54,1)" /><rect width="20" height="20" x="240" y="140" fill="rgba(46,52,54,1)" /><rect width="20" height="20" x="260" y="140" fill="rgba(46,52,54,1)" /><rect width="20" height="20" x="280" y="140" fill="rgba(0,0,0,1)" /><rect width="20" height="20" x="40" y="160" fill="rgba(238,238,236,1)" /><rect width="20" height="20" x="60" y="160" fill="rgba(238,238,236,1)" /><rect width="20" height="20" x="80" y="160" fill="rgba(52,101,164,1)" /><rect width="20" height="20" x="100" y="160" fill="rgba(52,101,164,1)" /><rect width="20" height="20" x="120" y="160" fill="rgba(255,255,255,1)" /><rect width="20" height="20" x="140" y="160" fill="rgba(255,255,255,1)" /><rect width="20" height="20" x="160" y="160" fill="rgba(255,255,255,1)" /><rect width="20" height="20" x="180" y="160" fill="rgba(46,52,54,1)" /><rect width="20" height="20" x="200" y="160" fill="rgba(46,52,54,1)" /><rect width="20" height="20" x="220" y="160" fill="rgba(46,52,54,1)" /><rect width="20" height="20" x="240" y="160" fill="rgba(46,52,54,1)" /><rect width="20" height="20" x="260" y="160" fill="rgba(0,0,0,1)" /><rect width="20" height="20" x="20" y="180" fill="rgba(238,238,236,1)" /><rect width="20" height="20" x="40" y="180" fill="rgba(238,238,236,1)" /><rect width="20" height="20" x="60" y="180" fill="rgba(238,238,236,1)" /><rect width="20" height="20" x="80" y="180" fill="rgba(238,238,236,1)" /><rect width="20" height="20" x="100" y="180" fill="rgba(255,255,255,1)" /><rect width="20" height="20" x="120" y="180" fill="rgba(255,255,255,1)" /><rect width="20" height="20" x="140" y="180" fill="rgba(255,255,255,1)" /><rect width="20" height="20" x="160" y="180" fill="rgba(46,52,54,1)" /><rect width="20" height="20" x="180" y="180" fill="rgba(46,52,54,1)" /><rect width="20" height="20" x="200" y="180" fill="rgba(46,52,54,1)" /><rect width="20" height="20" x="220" y="180" fill="rgba(46,52,54,1)" /><rect width="20" height="20" x="240" y="180" fill="rgba(0,0,0,1)" /><rect width="20" height="20" x="20" y="200" fill="rgba(238,238,236,1)" /><rect width="20" height="20" x="40" y="200" fill="rgba(238,238,236,1)" /><rect width="20" height="20" x="60" y="200" fill="rgba(238,238,236,1)" /><rect width="20" height="20" x="80" y="200" fill="rgba(238,238,236,1)" /><rect width="20" height="20" x="100" y="200" fill="rgba(238,238,236,1)" /><rect width="20" height="20" x="120" y="200" fill="rgba(255,255,255,1)" /><rect width="20" height="20" x="140" y="200" fill="rgba(46,52,54,1)" /><rect width="20" height="20" x="160" y="200" fill="rgba(46,52,54,1)" /><rect width="20" height="20" x="180" y="200" fill="rgba(46,52,54,1)" /><rect width="20" height="20" x="200" y="200" fill="rgba(46,52,54,1)" /><rect width="20" height="20" x="220" y="200" fill="rgba(0,0,0,1)" /><rect width="20" height="20" x="20" y="220" fill="rgba(211,215,207,1)" /><rect width="20" height="20" x="40" y="220" fill="rgba(238,238,236,1)" /><rect width="20" height="20" x="60" y="220" fill="rgba(238,238,236,1)" /><rect width="20" height="20" x="80" y="220" fill="rgba(238,238,236,1)" /><rect width="20" height="20" x="100" y="220" fill="rgba(238,238,236,1)" /><rect width="20" height="20" x="120" y="220" fill="rgba(238,238,236,1)" /><rect width="20" height="20" x="140" y="220" fill="rgba(46,52,54,1)" /><rect width="20" height="20" x="160" y="220" fill="rgba(46,52,54,1)" /><rect width="20" height="20" x="180" y="220" fill="rgba(46,52,54,1)" /><rect width="20" height="20" x="200" y="220" fill="rgba(0,0,0,1)" /><rect width="20" height="20" x="40" y="240" fill="rgba(211,215,207,1)" /><rect width="20" height="20" x="60" y="240" fill="rgba(238,238,236,1)" /><rect width="20" height="20" x="80" y="240" fill="rgba(238,238,236,1)" /><rect width="20" height="20" x="100" y="240" fill="rgba(238,238,236,1)" /><rect width="20" height="20" x="120" y="240" fill="rgba(238,238,236,1)" /><rect width="20" height="20" x="140" y="240" fill="rgba(238,238,236,1)" /><rect width="20" height="20" x="160" y="240" fill="rgba(46,52,54,1)" /><rect width="20" height="20" x="180" y="240" fill="rgba(0,0,0,1)" /><rect width="20" height="20" x="60" y="260" fill="rgba(211,215,207,1)" /><rect width="20" height="20" x="80" y="260" fill="rgba(238,238,236,1)" /><rect width="20" height="20" x="100" y="260" fill="rgba(238,238,236,1)" /><rect width="20" height="20" x="120" y="260" fill="rgba(238,238,236,1)" /><rect width="20" height="20" x="140" y="260" fill="rgba(238,238,236,1)" /><rect width="20" height="20" x="160" y="260" fill="rgba(0,0,0,1)" /><rect width="20" height="20" x="80" y="280" fill="rgba(211,215,207,1)" /><rect width="20" height="20" x="100" y="280" fill="rgba(238,238,236,1)" /><rect width="20" height="20" x="120" y="280" fill="rgba(238,238,236,1)" /><rect width="20" height="20" x="140" y="280" fill="rgba(211,215,207,1)" /><rect width="20" height="20" x="100" y="300" fill="rgba(211,215,207,1)" /><rect width="20" height="20" x="120" y="300" fill="rgba(211,215,207,1)" /></svg>