<svg xmlns="http://www.w3.org/2000/svg" width="320" height="320" viewBox="0 0 16 16"><rect width="1" height="1" x="11" y="2" fill="rgba(85,87,83,1)" /><rect width="1" height="1" x="12" y="2" fill="rgba(85,87,83,1)" /><rect width="1" height="1" x="13" y="2" fill="rgba(85,87,83,1)" /><rect width="1" height="1" x="1" y="3" fill="rgba(85,87,83,1)" /><rect width="1" height="1" x="2" y="3" fill="rgba(85,87,83,1)" /><rect width="1" height="1" x="3" y="3" fill="rgba(85,87,83,1)" /><rect width="1" height="1" x="4" y="3" fill="rgba(85,87,83,1)" /><rect width="1" height="1" x="5" y="3" fill="rgba(85,87,83,1)" /><rect width="1" height="1" x="6" y="3" fill="rgba(85,87,83,1)" /><rect width="1" height="1" x="7" y="3" fill="rgba(85,87,83,1)" /><rect width="1" height="1" x="8" y="3" fill="rgba(85,87,83,1)" /><rect width="1" height="1" x="9" y="3" fill="rgba(85,87,83,1)" /><rect width="1" height="1" x="10" y="3" fill="rgba(85,87,83,1)" /><rect width="1" height="1" x="11" y="3" fill="rgba(85,87,83,1)" /><rect width="1" height="1" x="12" y="3" fill="rgba(255,255,255,1)" /><rect width="1" height="1" x="13" y="3" fill="rgba(85,87,83,1)" /><rect width="1" height="1" x="14" y="3" fill="rgba(85,87,83,1)" /><rect width="1" height="1" x="1" y="4" fill="rgba(85,87,83,1)" /><rect width="1" height="1" x="2" y="4" fill="rgba(85,87,83,1)" /><rect width="1" height="1" x="3" y="4" fill="rgba(85,87,83,1)" /><rect width="1" height="1" x="4" y="4" fill="rgba(85,87,83,1)" /><rect width="1" height="1" x="5" y="4" fill="rgba(85,87,83,1)" /><rect width="1" height="1" x="6" y="4" fill="rgba(85,87,83,1)" /><rect width="1" height="1" x="7" y="4" fill="rgba(85,87,83,1)" /><rect width="1" height="1" x="8" y="4" fill="rgba(85,87,83,1)" /><rect width="1" height="1" x="9" y="4" fill="rgba(85,87,83,1)" /><rect width="1" height="1" x="10" y="4" fill="rgba(85,87,83,1)" /><rect width="1" height="1" x="11" y="4" fill="rgba(85,87,83,1)" /><rect width="1" height="1" x="12" y="4" fill="rgba(255,255,255,1)" /><rect width="1" height="1" x="13" y="4" fill="rgba(85,87,83,1)" /><rect width="1" height="1" x="14" y="4" fill="rgba(85,87,83,1)" /><rect width="1" height="1" x="11" y="5" fill="rgba(85,87,83,1)" /><rect width="1" height="1" x="12" y="5" fill="rgba(85,87,83,1)" /><rect width="1" height="1" x="13" y="5" fill="rgba(85,87,83,1)" /><rect width="1" height="1" x="2" y="6" fill="rgba(85,87,83,1)" /><rect width="1" height="1" x="3" y="6" fill="rgba(85,87,83,1)" /><rect width="1" height="1" x="4" y="6" fill="rgba(85,87,83,1)" /><rect width="1" height="1" x="1" y="7" fill="rgba(85,87,83,1)" /><rect width="1" height="1" x="2" y="7" fill="rgba(85,87,83,1)" /><rect width="1" height="1" x="3" y="7" fill="rgba(255,255,255,1)" /><rect width="1" height="1" x="4" y="7" fill="rgba(85,87,83,1)" /><rect width="1" height="1" x="5" y="7" fill="rgba(85,87,83,1)" /><rect width="1" height="1" x="6" y="7" fill="rgba(85,87,83,1)" /><rect width="1" height="1" x="7" y="7" fill="rgba(85,87,83,1)" /><rect width="1" height="1" x="8" y="7" fill="rgba(85,87,83,1)" /><rect width="1" height="1" x="9" y="7" fill="rgba(85,87,83,1)" /><rect width="1" height="1" x="10" y="7" fill="rgba(85,87,83,1)" /><rect width="1" height="1" x="11" y="7" fill="rgba(85,87,83,1)" /><rect width="1" height="1" x="12" y="7" fill="rgba(85,87,83,1)" /><rect width="1" height="1" x="13" y="7" fill="rgba(85,87,83,1)" /><rect width="1" height="1" x="14" y="7" fill="rgba(85,87,83,1)" /><rect width="1" height="1" x="1" y="8" fill="rgba(85,87,83,1)" /><rect width="1" height="1" x="2" y="8" fill="rgba(85,87,83,1)" /><rect width="1" height="1" x="3" y="8" fill="rgba(255,255,255,1)" /><rect width="1" height="1" x="4" y="8" fill="rgba(85,87,83,1)" /><rect width="1" height="1" x="5" y="8" fill="rgba(85,87,83,1)" /><rect width="1" height="1" x="6" y="8" fill="rgba(85,87,83,1)" /><rect width="1" height="1" x="7" y="8" fill="rgba(85,87,83,1)" /><rect width="1" height="1" x="8" y="8" fill="rgba(85,87,83,1)" /><rect width="1" height="1" x="9" y="8" fill="rgba(85,87,83,1)" /><rect width="1" height="1" x="10" y="8" fill="rgba(85,87,83,1)" /><rect width="1" height="1" x="11" y="8" fill="rgba(85,87,83,1)" /><rect width="1" height="1" x="12" y="8" fill="rgba(85,87,83,1)" /><rect width="1" height="1" x="13" y="8" fill="rgba(85,87,83,1)" /><rect width="1" height="1" x="14" y="8" fill="rgba(85,87,83,1)" /><rect width="1" height="1" x="2" y="9" fill="rgba(85,87,83,1)" /><rect width="1" height="1" x="3" y="9" fill="rgba(85,87,83,1)" /><rect width="1" height="1" x="4" y="9" fill="rgba(85,87,83,1)" /><rect width="1" height="1" x="7" y="10" fill="rgba(85,87,83,1)" /><rect width="1" height="1" x="8" y="10" fill="rgba(85,87,83,1)" /><rect width="1" height="1" x="9" y="10" fill="rgba(85,87,83,1)" /><rect width="1" height="1" x="1" y="11" fill="rgba(85,87,83,1)" /><rect width="1" height="1" x="2" y="11" fill="rgba(85,87,83,1)" /><rect width="1" height="1" x="3" y="11" fill="rgba(85,87,83,1)" /><rect width="1" height="1" x="4" y="11" fill="rgba(85,87,83,1)" /><rect width="1" height="1" x="5" y="11" fill="rgba(85,87,83,1)" /><rect width="1" height="1" x="6" y="11" fill="rgba(85,87,83,1)" /><rect width="1" height="1" x="7" y="11" fill="rgba(85,87,83,1)" /><rect width="1" height="1" x="8" y="11" fill="rgba(255,255,255,1)" /><rect width="1" height="1" x="9" y="11" fill="rgba(85,87,83,1)" /><rect width="1" height="1" x="10" y="11" fill="rgba(85,87,83,1)" /><rect width="1" height="1" x="11" y="11" fill="rgba(85,87,83,1)" /><rect width="1" height="1" x="12" y="11" fill="rgba(85,87,83,1)" /><rect width="1" height="1" x="13" y="11" fill="rgba(85,87,83,1)" /><rect width="1" height="1" x="14" y="11" fill="rgba(85,87,83,1)" /><rect width="1" height="1" x="1" y="12" fill="rgba(85,87,83,1)" /><rect width="1" height="1" x="2" y="12" fill="rgba(85,87,83,1)" /><rect width="1" height="1" x="3" y="12" fill="rgba(85,87,83,1)" /><rect width="1" height="1" x="4" y="12" fill="rgba(85,87,83,1)" /><rect width="1" height="1" x="5" y="12" fill="rgba(85,87,83,1)" /><rect width="1" height="1" x="6" y="12" fill="rgba(85,87,83,1)" /><rect width="1" height="1" x="7" y="12" fill="rgba(85,87,83,1)" /><rect width="1" height="1" x="8" y="12" fill="rgba(255,255,255,1)" /><rect width="1" height="1" x="9" y="12" fill="rgba(85,87,83,1)" /><rect width="1" height="1" x="10" y="12" fill="rgba(85,87,83,1)" /><rect width="1" height="1" x="11" y="12" fill="rgba(85,87,83,1)" /><rect width="1" height="1" x="12" y="12" fill="rgba(85,87,83,1)" /><rect width="1" height="1" x="13" y="12" fill="rgba(85,87,83,1)" /><rect width="1" height="1" x="14" y="12" fill="rgba(85,87,83,1)" /><rect width="1" height="1" x="7" y="13" fill="rgba(85,87,83,1)" /><rect width="1" height="1" x="8" y="13" fill="rgba(85,87,83,1)" /><rect width="1" height="1" x="9" y="13" fill="rgba(85,87,83,1)" /></svg>